Coordinates
version=1
nRows=14
nColumns=42
inDegrees=yes

Units are S.I. units (second, meters, Newtons, ...)
If the header above contains a line with 'inDegrees', this indicates whether rotational values are in degrees (yes) or radians (no).

endheader
time	pelvis_tilt	pelvis_list	pelvis_rotation	pelvis_tx	pelvis_ty	pelvis_tz	hip_flexion_r	hip_adduction_r	hip_rotation_r	knee_angle_r	knee_adduction_r	knee_angle_r_beta	ankle_angle_r	subtalar_angle_r	mtp_angle_r	hip_flexion_l	hip_adduction_l	hip_rotation_l	knee_angle_l	knee_adduction_l	knee_angle_l_beta	ankle_angle_l	subtalar_angle_l	mtp_angle_l	lumbar_extension	lumbar_bending	lumbar_rotation	arm_flex_r	arm_add_r	arm_rot_r	elbow_flex_r	pro_sup_r	wrist_flex_r	wrist_dev_r	arm_flex_l	arm_add_l	arm_rot_l	elbow_flex_l	pro_sup_l	wrist_flex_l	wrist_dev_l
      0.08000000	     12.60743890	      4.29805828	      3.86133860	     -1.64657808	      0.91153071	     -0.19031394	     20.22623890	     -7.96068538	    -39.09279536	     32.68353614	     -9.83051990	      0.57043532	      9.67924231	     35.08662073	     -9.55914156	    -18.37730188	      8.09496466	    -16.04389776	     23.64730282	    -13.32128563	      0.41272329	     26.14795887	     26.46095016	     -9.55914156	    -35.57146589	     -3.98645974	     -5.93889486	     -9.13697956	     -4.63700039	     -0.71696894	     26.92945474	     90.00000001	      0.00000000	      0.00000000	     28.24312946	    -22.94002213	      6.80540410	     46.77436170	     90.00000001	      0.00000000	      0.00000000
      0.09000000	     12.66111727	      4.23128605	      3.93791214	     -1.63686932	      0.91167221	     -0.18921080	     19.64153075	     -7.73884827	    -39.17233933	     32.87585801	     -9.85145703	      0.57379197	      9.78990949	     34.89579564	     -9.54395812	    -18.82367714	      7.77497771	    -15.77911263	     24.23751848	    -13.31428337	      0.42302450	     25.81221561	     26.45693445	     -9.54395812	    -35.53057950	     -3.77135702	     -5.90035154	     -8.75461766	     -4.72624968	     -0.57124610	     27.02197775	     90.00000001	      0.00000000	      0.00000000	     27.74675163	    -22.94276618	      6.88726798	     46.67507774	     90.00000001	      0.00000000	      0.00000000
      0.10000000	     12.73415296	      4.10721136	      4.01567420	     -1.62712479	      0.91202147	     -0.18794664	     18.98240935	     -7.39804445	    -39.13674205	     33.03598894	     -9.86936167	      0.57658678	     10.12268073	     34.05430583	     -9.48711430	    -19.22570488	      7.41184011	    -15.35409361	     24.95826495	    -13.31355230	      0.43560390	     25.05565814	     25.76933810	     -9.48711430	    -35.51274111	     -3.51651194	     -5.85358912	     -8.15483950	     -4.83434427	     -0.02504368	     26.78423230	     90.00000001	      0.00000000	      0.00000000	     27.03939043	    -23.02306384	      7.09560996	     46.99427603	     90.00000001	      0.00000000	      0.00000000
      0.11000000	     12.81034358	      4.10864861	      4.04446934	     -1.61730814	      0.91244045	     -0.18682732	     18.36656455	     -7.29171109	    -39.16007226	     33.37390817	     -9.97512218	      0.58248458	     10.10073661	     33.93488613	     -9.47745169	    -19.54291997	      7.23801847	    -14.98912081	     25.82267391	    -13.42182288	      0.45069068	     24.56142628	     25.69038529	     -9.47745169	    -35.48782998	     -3.37099187	     -5.80061011	     -7.71052693	     -5.00649566	      0.03723935	     26.83401481	     90.00000001	      0.00000000	      0.00000000	     26.42219151	    -22.92872320	      7.17451917	     46.86003932	     90.00000001	      0.00000000	      0.00000000
      0.12000000	     12.79748056	      4.03338863	      4.12512726	     -1.60760068	      0.91300937	     -0.18555665	     17.80115741	     -7.06488132	    -39.12973807	     33.61678161	    -10.03670668	      0.58672352	     10.24928154	     33.07126412	     -9.42132590	    -19.52469489	      6.92472378	    -14.50453339	     27.19658641	    -13.42689764	      0.47466998	     23.14218539	     24.07971878	     -9.42132590	    -35.39742191	     -3.15587875	     -5.80170941	     -6.92138032	     -5.07958463	      0.50988535	     26.40259605	     90.00000001	      0.00000000	      0.00000000	     25.51965465	    -23.01900652	      7.30403434	     47.22238678	     90.00000001	      0.00000000	      0.00000000
      0.13000000	     12.95571678	      4.02059595	      4.18204384	     -1.59779323	      0.91383099	     -0.18435453	     17.04917806	     -7.02359576	    -39.15920892	     34.03053862	    -10.00774199	      0.59394495	     10.23722562	     32.94659523	     -9.40856696	    -19.63984343	      6.67916480	    -14.08461730	     28.61334029	    -13.48838391	      0.49939700	     22.22096202	     23.77446599	     -9.40856696	    -35.46929053	     -2.98087085	     -5.76182466	     -6.28248837	     -5.22070874	      0.59195185	     26.48385326	     90.00000001	      0.00000000	      0.00000000	     24.85550783	    -22.98555261	      7.36311591	     47.08464187	     90.00000001	      0.00000000	      0.00000000
      0.14000000	     13.04057718	      3.96060612	      4.24768167	     -1.58805825	      0.91468780	     -0.18298178	     16.37731322	     -6.87317310	    -39.14710908	     34.37241101	    -10.02348948	      0.59991174	     10.31510423	     32.67305090	     -9.39208495	    -19.38266738	      6.34187515	    -13.85717802	     30.54640387	    -13.61833504	      0.53313532	     20.68483799	     22.90916125	     -9.39208495	    -35.47025852	     -2.80435728	     -5.73731521	     -5.53095471	     -5.31880302	      0.73397709	     26.47335997	     90.00000001	      0.00000000	      0.00000000	     24.05284507	    -22.93925448	      7.43541262	     47.03417979	     90.00000001	      0.00000000	      0.00000000
      0.15000000	     13.14407984	      3.93029863	      4.32432935	     -1.57837503	      0.91567004	     -0.18168050	     15.70372808	     -6.76496529	    -39.11668369	     34.74318702	    -10.06389217	      0.60638301	     10.40494749	     32.38020852	     -9.37638561	    -18.98997664	      6.06575897	    -13.54993285	     32.73820652	    -13.80342352	      0.57138949	     19.00143073	     21.84131479	     -9.37638561	    -35.51924607	     -2.63061901	     -5.68965407	     -4.72394234	     -5.46488150	      0.87849301	     26.44305129	     90.00000001	      0.00000000	      0.00000000	     23.20439045	    -22.85662731	      7.51592909	     47.00771855	     90.00000001	      0.00000000	      0.00000000
      0.16000000	     13.05160244	      4.06981361	      4.37356308	     -1.56888560	      0.91668629	     -0.18048405	     15.29148817	     -6.84587505	    -38.96065793	     35.13591464	    -10.10694497	      0.61323740	     10.58197053	     31.28122940	     -9.26216095	    -18.41635828	      6.32867857	    -11.13257138	     35.28989150	    -13.22018431	      0.61592480	     16.11745977	     15.68086997	     -9.26216095	    -35.37996708	     -2.64691362	     -5.83198241	     -3.56525912	     -5.57769960	      1.68968200	     25.69325292	     90.00000001	      0.00000000	      0.00000000	     21.94755214	    -22.97737675	      7.60294454	     47.68022503	     90.00000001	      0.00000000	      0.00000000
      0.17000000	     13.17590403	      3.99075219	      4.45647948	     -1.55933461	      0.91778678	     -0.17908073	     14.55840487	     -6.65314408	    -38.90721706	     35.39626808	    -10.09448764	      0.61778142	     10.77551784	     31.34140588	     -9.24101837	    -17.62538504	      5.96675658	    -10.96198244	     38.12801637	    -13.36756887	      0.66545942	     14.13352539	     14.90831763	     -9.24101837	    -35.44414353	     -2.43101343	     -5.71216034	     -2.74251045	     -5.72595115	      1.77906729	     25.95813156	     90.00000001	      0.00000000	      0.00000000	     21.09688668	    -22.85085416	      7.70606402	     47.44554359	     90.00000001	      0.00000000	      0.00000000
      0.18000000	     13.18812129	      4.10190168	      4.51863917	     -1.55005748	      0.91887155	     -0.17782941	     14.00105094	     -6.70803027	    -38.81627570	     35.75507990	    -10.07867387	      0.62404387	     10.99889793	     31.08698840	     -9.13346451	    -16.68470412	      6.09552355	     -9.04430433	     41.35817217	    -12.72020826	      0.72183628	     11.24003846	      9.96325389	     -9.13346451	    -35.43618270	     -2.42952221	     -5.76248348	     -1.72178073	     -5.93726488	      2.29597780	     25.89836743	     90.00000001	      0.00000000	      0.00000000	     20.16538057	    -22.78152024	      7.83771540	     47.57430036	     90.00000001	      0.00000000	      0.00000000
      0.19000000	     13.20513776	      4.12646941	      4.58127312	     -1.54094132	      0.91991852	     -0.17645437	     13.39704714	     -6.62229655	    -38.78176406	     35.95152020	    -10.06806247	      0.62747240	     11.25907757	     31.17628557	     -9.02983419	    -15.50425516	      6.02194866	     -7.73556048	     44.76873066	    -12.18337095	      0.78136175	      8.75542301	      6.77810841	     -9.02983419	    -35.44404380	     -2.35083912	     -5.72562334	     -0.73921072	     -6.13328673	      2.65305997	     26.08473861	     90.00000001	      0.00000000	      0.00000000	     19.25745669	    -22.68015416	      7.98112254	     47.49849608	     90.00000001	      0.00000000	      0.00000000
      0.20000000	     13.16956989	      4.13758772	      4.64131589	     -1.53202007	      0.92087368	     -0.17509345	     12.82165445	     -6.52062311	    -38.79881707	     36.06987796	    -10.02433083	      0.62953813	     11.55496354	     31.35239389	     -8.94315227	    -14.13439320	      5.99044772	     -6.11968345	     48.31318660	    -11.35179827	      0.84322418	      6.36889913	      3.45936616	     -8.94315227	    -35.39366795	     -2.28813967	     -5.66880653	      0.30829740	     -6.33682359	      2.94418899	     26.28804593	     90.00000001	      0.00000000	      0.00000000	     18.32244435	    -22.58610101	      8.14279349	     47.42234271	     90.00000001	      0.00000000	      0.00000000
      0.21000000	     13.12473702	      4.00160583	      4.69557456	     -1.52324851	      0.92168153	     -0.17356593	     12.22730424	     -6.16637133	    -38.85052409	     35.99863001	    -10.02939907	      0.62829462	     11.90956230	     31.41735675	     -8.90926019	    -12.55130529	      5.69979165	     -5.23175995	     51.89049502	    -10.82643658	      0.90565999	      4.86457910	      2.43201915	     -8.90926019	    -35.32600911	     -2.09316101	     -5.49132958	      1.33336684	     -6.57233892	      3.03223984	     26.69728475	     90.00000001	      0.00000000	      0.00000000	     17.43605768	    -22.40946686	      8.28601394	     47.26272005	     90.00000001	      0.00000000	      0.00000000
